<?xml version="1.0" standalone="no"?>
<!DOCTYPE svg PUBLIC "-//W3C//DTD SVG 20010904//EN"
 "http://www.w3.org/TR/2001/REC-SVG-20010904/DTD/svg10.dtd">
<svg version="1.0" xmlns="http://www.w3.org/2000/svg"
 width="2560.000000pt" height="608.000000pt" viewBox="0 0 2560.000000 608.000000"
 preserveAspectRatio="xMidYMid meet">

<g transform="translate(0.000000,608.000000) scale(0.100000,-0.100000)"
fill="#000000" stroke="none">
<path d="M4062 5889 c-329 -38 -659 -235 -856 -512 -163 -228 -244 -478 -254
-783 -11 -352 55 -698 188 -981 152 -324 409 -591 715 -743 98 -49 94 -35 66
-202 -96 -560 -429 -919 -923 -994 -126 -19 -345 -14 -463 11 -445 94 -736
415 -852 939 l-27 121 -3 1518 -4 1517 -740 0 -740 0 4 -1527 c4 -1586 4
-1577 48 -1838 82 -486 275 -928 565 -1295 100 -126 303 -324 434 -421 367
-276 750 -430 1230 -495 152 -21 517 -24 665 -5 1071 133 1859 808 2179 1865
59 192 89 364 121 677 l6 56 112 28 c62 15 159 43 217 61 58 19 111 34 118 34
9 0 12 -271 12 -1320 l0 -1320 735 0 735 0 0 1721 0 1721 77 101 c219 287 480
481 745 552 513 138 1030 -87 1260 -550 44 -87 82 -204 104 -315 16 -77 18
-228 21 -1658 l4 -1572 734 0 735 0 0 1838 c0 1240 -4 1874 -11 1948 -61 625
-404 1172 -941 1506 -259 160 -574 270 -901 313 -156 20 -462 20 -608 -1 -376
-52 -728 -207 -1092 -480 l-122 -91 -3 233 -2 234 -735 0 -735 0 0 -615 0
-615 -42 -27 c-53 -33 -237 -121 -338 -161 l-75 -30 -3 52 c-49 970 -610 1592
-1360 1505z"/>
<path d="M18748 5870 c-336 -39 -639 -128 -938 -276 -868 -431 -1424 -1279
-1511 -2303 -15 -176 -7 -536 16 -711 62 -484 214 -911 451 -1266 108 -162
185 -257 323 -394 336 -334 779 -569 1271 -674 252 -54 331 -61 690 -60 363 0
474 11 737 70 775 173 1377 606 1741 1252 l41 73 -52 23 c-29 13 -214 97 -412
186 -198 89 -436 196 -529 238 l-169 76 -16 -24 c-44 -67 -140 -176 -198 -226
-266 -225 -589 -346 -1008 -375 -357 -24 -670 50 -923 218 -208 138 -367 352
-451 606 -27 80 -61 220 -61 248 0 5 761 9 1986 9 l1986 0 -5 418 c-5 431 -13
537 -57 767 -165 863 -632 1505 -1355 1861 -241 118 -503 198 -810 246 -147
22 -608 34 -747 18z m417 -1250 c480 -39 825 -245 1010 -601 46 -88 105 -251
105 -288 l0 -21 -1240 0 c-1087 0 -1240 2 -1240 15 0 25 47 142 96 237 195
376 564 619 1000 657 128 12 137 12 269 1z"/>
<path d="M24820 5874 c-14 -2 -59 -9 -100 -15 -326 -47 -699 -217 -980 -447
-41 -34 -78 -62 -82 -62 -5 0 -8 97 -8 215 l0 215 -735 0 -735 0 0 -2750 0
-2750 735 0 735 0 0 1704 0 1704 33 59 c88 156 165 260 282 382 190 198 404
326 654 389 96 24 123 27 296 27 124 0 220 -5 275 -15 47 -8 89 -15 95 -15 5
0 38 282 75 653 l66 653 -50 14 c-96 28 -249 45 -391 44 -77 -1 -151 -3 -165
-5z"/>
<path d="M11620 5130 l0 -650 1250 0 c688 0 1250 -3 1249 -7 0 -5 -591 -710
-1314 -1568 l-1314 -1560 0 -532 -1 -533 2340 0 2340 0 0 650 0 650 -1324 2
-1324 3 1324 1587 1324 1588 0 510 0 510 -2275 0 -2275 0 0 -650z"/>
</g>
</svg>
